<svg width="85" height="64" viewBox="0 0 85 64" fill="none" xmlns="http://www.w3.org/2000/svg">
<path d="M62.5993 0.802409C64.03 0.204291 65.7447 -0.259553 67.3249 0.163737C68.3888 0.448808 69.1368 1.16307 69.6413 1.89421C70.1419 2.61983 70.4955 3.4895 70.7575 4.37174C71.2822 6.13917 71.5554 8.3616 71.6843 10.6423C71.9282 14.961 71.6716 19.9013 71.3454 23.3639C73.1442 26.6389 74.7286 30.9298 75.1872 35.5104L82.0173 34.7516C83.115 34.6297 84.1032 35.4206 84.2253 36.5182C84.3472 37.616 83.5565 38.6043 82.4587 38.7262L75.2819 39.5231C75.2228 40.5616 75.0949 41.6038 74.8894 42.6423C75.2136 42.73 75.5245 42.8194 75.8142 42.9157C76.4709 43.1341 77.3082 43.4656 77.9245 44.0378C78.7339 44.7893 78.7805 46.0545 78.029 46.8639C77.2775 47.6732 76.0122 47.7207 75.2028 46.9694C75.2609 47.0233 75.1426 46.9078 74.5524 46.7116C74.3158 46.6329 74.0455 46.5556 73.7419 46.4753C72.6894 49.0526 71.0573 51.5432 68.6784 53.8151C68.6175 53.8733 68.5528 53.9282 68.4851 53.9782C58.4971 61.3495 46.4131 63.5416 41.4968 63.7253C41.409 63.7285 41.3205 63.7267 41.2331 63.7184C22.7313 61.9619 13.2474 55.4953 9.4792 47.319C8.22421 47.7445 7.0836 48.1545 6.18916 48.5143C5.70121 48.7106 5.31206 48.8813 5.029 49.0221C4.69066 49.1905 4.66494 49.2382 4.75459 49.1549C3.94517 49.9065 2.67905 49.8599 1.92744 49.0505C1.17607 48.241 1.22357 46.9758 2.03291 46.2243C2.40125 45.8824 2.8867 45.6203 3.24678 45.4411C3.66211 45.2344 4.15885 45.0195 4.69599 44.8034C5.67839 44.4082 6.88517 43.9752 8.16279 43.5417C7.82317 42.1535 7.62733 40.7564 7.55439 39.3678L1.779 38.7262C0.681225 38.6043 -0.109515 37.616 0.0124012 36.5182C0.134484 35.4206 1.12271 34.6297 2.22041 34.7516L7.6667 35.3561C8.13786 30.8452 9.70324 26.6256 11.4978 23.362C11.1717 19.8994 10.916 14.9602 11.1599 10.6423C11.2887 8.36161 11.5619 6.13917 12.0866 4.37174C12.3486 3.48949 12.7023 2.61984 13.2028 1.89421C13.7072 1.1632 14.4547 0.448912 15.5183 0.163737C17.0985 -0.259694 18.8141 0.204241 20.2448 0.802409C21.7536 1.43322 23.3479 2.38753 24.8679 3.43717C27.4003 5.18595 29.9025 7.32434 31.737 9.04069C33.0452 8.51263 34.5877 8.15366 35.9645 7.90299C37.9912 7.53406 40.0315 7.33647 41.3122 7.26628H41.531C42.8117 7.33645 44.8526 7.53399 46.8796 7.90299C48.2563 8.15363 49.7979 8.5127 51.1062 9.04069C52.9406 7.3244 55.4429 5.18597 57.9753 3.43717C59.4953 2.3875 61.0905 1.43324 62.5993 0.802409ZM16.6159 4.0153C16.5905 4.04078 16.549 4.0872 16.4948 4.16569C16.3233 4.41451 16.1179 4.84591 15.9206 5.51042C15.5267 6.83752 15.2755 8.69971 15.153 10.8678C14.9097 15.1761 15.1947 20.2436 15.5368 23.5944C15.5794 24.0124 15.4891 24.4336 15.279 24.7975C13.522 27.8407 12.059 31.7385 11.6433 35.7985L17.4519 36.444C18.5494 36.5661 19.3402 37.5544 19.2185 38.652C19.0965 39.7497 18.1081 40.5404 17.0104 40.4186L11.5993 39.8171C11.6711 40.6508 11.7953 41.4819 11.9812 42.3044C13.7359 41.7557 15.4112 41.254 16.6774 40.8893C17.7387 40.5838 18.8473 41.1972 19.153 42.2585C19.4584 43.3196 18.8458 44.4272 17.7849 44.7331C16.5748 45.0816 14.9853 45.5569 13.3181 46.0768C16.4012 52.2623 24.1893 58.0537 41.4724 59.7214C45.8928 59.5258 56.938 57.4797 66.0056 50.8337C67.6865 49.2071 68.9077 47.426 69.7536 45.5641C68.6922 45.3241 67.5617 45.0524 66.4528 44.7331C65.3919 44.4271 64.7793 43.3196 65.0847 42.2585C65.3904 41.1972 66.499 40.5839 67.5603 40.8893C68.7098 41.2204 69.858 41.4886 70.9694 41.736C71.0831 41.1512 71.1681 40.5635 71.2253 39.9743L67.2272 40.4186C66.1296 40.5403 65.1412 39.7497 65.0192 38.652C64.8975 37.5544 65.6883 36.5661 66.7858 36.444L71.2194 35.9508C70.8333 31.8514 69.3614 27.9103 67.5642 24.7975C67.3541 24.4337 67.2638 24.0123 67.3063 23.5944C67.6485 20.2436 67.9335 15.1761 67.6901 10.8678C67.5676 8.69958 67.3165 6.83753 66.9226 5.51042C66.7252 4.84564 66.5199 4.41446 66.3483 4.16569C66.2939 4.0868 66.2526 4.04067 66.2272 4.0153C65.9365 3.96682 65.2789 4.01766 64.1423 4.49284C62.9932 4.97329 61.6553 5.75788 60.2487 6.72917C57.4431 8.66666 54.6151 11.17 52.8796 12.8786C52.2133 13.5341 51.1815 13.6409 50.3952 13.1354C49.645 12.6532 48.0912 12.1886 46.1628 11.8376C44.3832 11.5136 42.5709 11.335 41.4216 11.2673C40.2721 11.3351 38.4598 11.5136 36.6804 11.8376C34.7524 12.1886 33.1992 12.6533 32.4489 13.1354C31.6625 13.6407 30.6298 13.5343 29.9636 12.8786C28.228 11.17 25.4009 8.6666 22.5954 6.72917C21.1888 5.75786 19.8509 4.97329 18.7019 4.49284C17.5643 4.01727 16.9063 3.96664 16.6159 4.0153ZM41.322 36.0417C42.7487 36.0085 45.5426 36.3009 45.3044 37.734C45.0057 39.526 42.4178 40.1238 42.6169 42.0153C42.816 43.9067 45.0063 44.7028 46.2009 44.7028C47.3955 44.7019 49.2868 41.0203 50.6804 42.613C52.0733 44.2058 48.0924 47.3909 46.2009 47.4909C44.3094 47.5904 43.4126 47.0923 41.322 45.2008C39.2315 47.0922 38.3355 47.5904 36.444 47.4909C34.5525 47.391 30.5714 44.2058 31.9645 42.613C33.3582 41.0203 35.2494 44.7022 36.444 44.7028C37.6387 44.7028 39.8289 43.9067 40.028 42.0153C40.2271 40.1238 37.6392 39.526 37.3405 37.734C37.1023 36.301 39.8951 36.0086 41.322 36.0417ZM27.8825 27.9694C30.8014 27.9694 33.1676 30.3356 33.1677 33.2546C33.1677 34.3591 32.2722 35.2546 31.1677 35.2546C30.0632 35.2545 29.1677 34.3591 29.1677 33.2546C29.1676 32.5448 28.5923 31.9694 27.8825 31.9694C27.1728 31.9695 26.5974 32.5448 26.5974 33.2546C26.5974 34.3591 25.7019 35.2546 24.5974 35.2546C23.4928 35.2545 22.5974 34.3591 22.5974 33.2546C22.5974 30.3357 24.9636 27.9695 27.8825 27.9694ZM54.5622 27.9694C57.4811 27.9694 59.8473 30.3356 59.8474 33.2546C59.8474 34.3591 58.9519 35.2546 57.8474 35.2546C56.7429 35.2545 55.8474 34.3591 55.8474 33.2546C55.8473 32.5448 55.272 31.9694 54.5622 31.9694C53.8525 31.9695 53.2771 32.5448 53.277 33.2546C53.277 34.3591 52.3816 35.2546 51.277 35.2546C50.1725 35.2545 49.277 34.3591 49.277 33.2546C49.2771 30.3357 51.6433 27.9695 54.5622 27.9694Z" fill="black"/>
</svg>
